<mxfile host="app.diagrams.net" modified="2023-06-23T15:02:12.685Z" agent="Mozilla/5.0 (Windows NT 10.0; Win64; x64) AppleWebKit/537.36 (KHTML, like Gecko) Chrome/114.0.0.0 Safari/537.36" etag="Ck7fGaA3GaTXy2yUgm7w" version="21.5.0" type="github">
  <diagram name="PÃ¡gina-1" id="rOxvobYUixdnEhXv50jH">
    <mxGraphModel dx="1500" dy="819" grid="1" gridSize="10" guides="1" tooltips="1" connect="1" arrows="1" fold="1" page="1" pageScale="1" pageWidth="827" pageHeight="1169" math="0" shadow="0">
      <root>
        <mxCell id="0" />
        <mxCell id="1" parent="0" />
        <mxCell id="60lB5uvHRvaHwJrx52zC-39" value="Controllers" style="shape=folder;fontStyle=1;tabWidth=110;tabHeight=30;tabPosition=left;html=1;boundedLbl=1;labelInHeader=1;container=1;collapsible=0;whiteSpace=wrap;" vertex="1" parent="1">
          <mxGeometry x="10" y="10" width="380" height="320" as="geometry" />
        </mxCell>
        <mxCell id="60lB5uvHRvaHwJrx52zC-40" value="" style="html=1;strokeColor=none;resizeWidth=1;resizeHeight=1;fillColor=none;part=1;connectable=0;allowArrows=0;deletable=0;whiteSpace=wrap;" vertex="1" parent="60lB5uvHRvaHwJrx52zC-39">
          <mxGeometry width="380" height="224" relative="1" as="geometry">
            <mxPoint y="30" as="offset" />
          </mxGeometry>
        </mxCell>
        <mxCell id="60lB5uvHRvaHwJrx52zC-1" value="Controller" style="swimlane;fontStyle=1;align=center;verticalAlign=top;childLayout=stackLayout;horizontal=1;startSize=26;horizontalStack=0;resizeParent=1;resizeParentMax=0;resizeLast=0;collapsible=1;marginBottom=0;whiteSpace=wrap;html=1;" vertex="1" parent="60lB5uvHRvaHwJrx52zC-39">
          <mxGeometry x="110" y="220" width="160" height="86" as="geometry" />
        </mxCell>
        <mxCell id="60lB5uvHRvaHwJrx52zC-2" value="+ field: type" style="text;strokeColor=none;fillColor=none;align=left;verticalAlign=top;spacingLeft=4;spacingRight=4;overflow=hidden;rotatable=0;points=[[0,0.5],[1,0.5]];portConstraint=eastwest;whiteSpace=wrap;html=1;" vertex="1" parent="60lB5uvHRvaHwJrx52zC-1">
          <mxGeometry y="26" width="160" height="26" as="geometry" />
        </mxCell>
        <mxCell id="60lB5uvHRvaHwJrx52zC-3" value="" style="line;strokeWidth=1;fillColor=none;align=left;verticalAlign=middle;spacingTop=-1;spacingLeft=3;spacingRight=3;rotatable=0;labelPosition=right;points=[];portConstraint=eastwest;strokeColor=inherit;" vertex="1" parent="60lB5uvHRvaHwJrx52zC-1">
          <mxGeometry y="52" width="160" height="8" as="geometry" />
        </mxCell>
        <mxCell id="60lB5uvHRvaHwJrx52zC-4" value="+ get_courses" style="text;strokeColor=none;fillColor=none;align=left;verticalAlign=top;spacingLeft=4;spacingRight=4;overflow=hidden;rotatable=0;points=[[0,0.5],[1,0.5]];portConstraint=eastwest;whiteSpace=wrap;html=1;" vertex="1" parent="60lB5uvHRvaHwJrx52zC-1">
          <mxGeometry y="60" width="160" height="26" as="geometry" />
        </mxCell>
        <mxCell id="60lB5uvHRvaHwJrx52zC-5" value="SIAScrapper" style="swimlane;fontStyle=0;childLayout=stackLayout;horizontal=1;startSize=26;fillColor=none;horizontalStack=0;resizeParent=1;resizeParentMax=0;resizeLast=0;collapsible=1;marginBottom=0;whiteSpace=wrap;html=1;" vertex="1" parent="60lB5uvHRvaHwJrx52zC-39">
          <mxGeometry x="10" y="50" width="140" height="104" as="geometry" />
        </mxCell>
        <mxCell id="60lB5uvHRvaHwJrx52zC-6" value="+ field: type" style="text;strokeColor=none;fillColor=none;align=left;verticalAlign=top;spacingLeft=4;spacingRight=4;overflow=hidden;rotatable=0;points=[[0,0.5],[1,0.5]];portConstraint=eastwest;whiteSpace=wrap;html=1;" vertex="1" parent="60lB5uvHRvaHwJrx52zC-5">
          <mxGeometry y="26" width="140" height="26" as="geometry" />
        </mxCell>
        <mxCell id="60lB5uvHRvaHwJrx52zC-7" value="+ field: type" style="text;strokeColor=none;fillColor=none;align=left;verticalAlign=top;spacingLeft=4;spacingRight=4;overflow=hidden;rotatable=0;points=[[0,0.5],[1,0.5]];portConstraint=eastwest;whiteSpace=wrap;html=1;" vertex="1" parent="60lB5uvHRvaHwJrx52zC-5">
          <mxGeometry y="52" width="140" height="26" as="geometry" />
        </mxCell>
        <mxCell id="60lB5uvHRvaHwJrx52zC-8" value="+ field: type" style="text;strokeColor=none;fillColor=none;align=left;verticalAlign=top;spacingLeft=4;spacingRight=4;overflow=hidden;rotatable=0;points=[[0,0.5],[1,0.5]];portConstraint=eastwest;whiteSpace=wrap;html=1;" vertex="1" parent="60lB5uvHRvaHwJrx52zC-5">
          <mxGeometry y="78" width="140" height="26" as="geometry" />
        </mxCell>
        <mxCell id="60lB5uvHRvaHwJrx52zC-14" value="Use" style="endArrow=open;endSize=12;dashed=1;html=1;rounded=0;" edge="1" parent="60lB5uvHRvaHwJrx52zC-39" source="60lB5uvHRvaHwJrx52zC-1" target="60lB5uvHRvaHwJrx52zC-5">
          <mxGeometry width="160" relative="1" as="geometry">
            <mxPoint x="320" y="290" as="sourcePoint" />
            <mxPoint x="480" y="290" as="targetPoint" />
          </mxGeometry>
        </mxCell>
        <mxCell id="60lB5uvHRvaHwJrx52zC-9" value="CourseraScrapper" style="swimlane;fontStyle=0;childLayout=stackLayout;horizontal=1;startSize=26;fillColor=none;horizontalStack=0;resizeParent=1;resizeParentMax=0;resizeLast=0;collapsible=1;marginBottom=0;whiteSpace=wrap;html=1;" vertex="1" parent="60lB5uvHRvaHwJrx52zC-39">
          <mxGeometry x="210" y="70" width="140" height="104" as="geometry" />
        </mxCell>
        <mxCell id="60lB5uvHRvaHwJrx52zC-10" value="+ field: type" style="text;strokeColor=none;fillColor=none;align=left;verticalAlign=top;spacingLeft=4;spacingRight=4;overflow=hidden;rotatable=0;points=[[0,0.5],[1,0.5]];portConstraint=eastwest;whiteSpace=wrap;html=1;" vertex="1" parent="60lB5uvHRvaHwJrx52zC-9">
          <mxGeometry y="26" width="140" height="26" as="geometry" />
        </mxCell>
        <mxCell id="60lB5uvHRvaHwJrx52zC-11" value="+ field: type" style="text;strokeColor=none;fillColor=none;align=left;verticalAlign=top;spacingLeft=4;spacingRight=4;overflow=hidden;rotatable=0;points=[[0,0.5],[1,0.5]];portConstraint=eastwest;whiteSpace=wrap;html=1;" vertex="1" parent="60lB5uvHRvaHwJrx52zC-9">
          <mxGeometry y="52" width="140" height="26" as="geometry" />
        </mxCell>
        <mxCell id="60lB5uvHRvaHwJrx52zC-12" value="+ field: type" style="text;strokeColor=none;fillColor=none;align=left;verticalAlign=top;spacingLeft=4;spacingRight=4;overflow=hidden;rotatable=0;points=[[0,0.5],[1,0.5]];portConstraint=eastwest;whiteSpace=wrap;html=1;" vertex="1" parent="60lB5uvHRvaHwJrx52zC-9">
          <mxGeometry y="78" width="140" height="26" as="geometry" />
        </mxCell>
        <mxCell id="60lB5uvHRvaHwJrx52zC-13" value="Use" style="endArrow=open;endSize=12;dashed=1;html=1;rounded=0;exitX=0.5;exitY=0;exitDx=0;exitDy=0;" edge="1" parent="60lB5uvHRvaHwJrx52zC-39" source="60lB5uvHRvaHwJrx52zC-1" target="60lB5uvHRvaHwJrx52zC-9">
          <mxGeometry width="160" relative="1" as="geometry">
            <mxPoint x="600" y="290" as="sourcePoint" />
            <mxPoint x="480" y="290" as="targetPoint" />
          </mxGeometry>
        </mxCell>
        <mxCell id="60lB5uvHRvaHwJrx52zC-58" value="Models" style="shape=folder;tabWidth=110;tabHeight=30;tabPosition=left;html=1;boundedLbl=1;labelInHeader=1;container=1;collapsible=0;whiteSpace=wrap;textDirection=ltr;" vertex="1" parent="1">
          <mxGeometry x="430" y="180" width="390" height="490" as="geometry" />
        </mxCell>
        <mxCell id="60lB5uvHRvaHwJrx52zC-59" value="" style="html=1;strokeColor=none;resizeWidth=1;resizeHeight=1;fillColor=none;part=1;connectable=0;allowArrows=0;deletable=0;whiteSpace=wrap;" vertex="1" parent="60lB5uvHRvaHwJrx52zC-58">
          <mxGeometry width="390" height="302.20264317180613" relative="1" as="geometry">
            <mxPoint y="30" as="offset" />
          </mxGeometry>
        </mxCell>
        <mxCell id="60lB5uvHRvaHwJrx52zC-23" value="Course" style="swimlane;fontStyle=0;childLayout=stackLayout;horizontal=1;startSize=26;fillColor=none;horizontalStack=0;resizeParent=1;resizeParentMax=0;resizeLast=0;collapsible=1;marginBottom=0;whiteSpace=wrap;html=1;" vertex="1" parent="60lB5uvHRvaHwJrx52zC-58">
          <mxGeometry x="240.00060606060606" y="200.0047577092511" width="130" height="131.23127753303964" as="geometry" />
        </mxCell>
        <mxCell id="60lB5uvHRvaHwJrx52zC-24" value="+ field: type" style="text;strokeColor=none;fillColor=none;align=left;verticalAlign=top;spacingLeft=4;spacingRight=4;overflow=hidden;rotatable=0;points=[[0,0.5],[1,0.5]];portConstraint=eastwest;whiteSpace=wrap;html=1;" vertex="1" parent="60lB5uvHRvaHwJrx52zC-23">
          <mxGeometry y="26" width="130" height="35.07709251101321" as="geometry" />
        </mxCell>
        <mxCell id="60lB5uvHRvaHwJrx52zC-25" value="+ field: type" style="text;strokeColor=none;fillColor=none;align=left;verticalAlign=top;spacingLeft=4;spacingRight=4;overflow=hidden;rotatable=0;points=[[0,0.5],[1,0.5]];portConstraint=eastwest;whiteSpace=wrap;html=1;" vertex="1" parent="60lB5uvHRvaHwJrx52zC-23">
          <mxGeometry y="61.07709251101321" width="130" height="35.07709251101321" as="geometry" />
        </mxCell>
        <mxCell id="60lB5uvHRvaHwJrx52zC-26" value="+ field: type" style="text;strokeColor=none;fillColor=none;align=left;verticalAlign=top;spacingLeft=4;spacingRight=4;overflow=hidden;rotatable=0;points=[[0,0.5],[1,0.5]];portConstraint=eastwest;whiteSpace=wrap;html=1;" vertex="1" parent="60lB5uvHRvaHwJrx52zC-23">
          <mxGeometry y="96.15418502202643" width="130" height="35.07709251101321" as="geometry" />
        </mxCell>
        <mxCell id="60lB5uvHRvaHwJrx52zC-15" value="CourseraCourse" style="swimlane;fontStyle=0;childLayout=stackLayout;horizontal=1;startSize=26;fillColor=none;horizontalStack=0;resizeParent=1;resizeParentMax=0;resizeLast=0;collapsible=1;marginBottom=0;whiteSpace=wrap;html=1;" vertex="1" parent="60lB5uvHRvaHwJrx52zC-58">
          <mxGeometry x="39.99757575757576" y="329.9960792951542" width="137.87878787878788" height="131.23127753303964" as="geometry" />
        </mxCell>
        <mxCell id="60lB5uvHRvaHwJrx52zC-16" value="+ field: type" style="text;strokeColor=none;fillColor=none;align=left;verticalAlign=top;spacingLeft=4;spacingRight=4;overflow=hidden;rotatable=0;points=[[0,0.5],[1,0.5]];portConstraint=eastwest;whiteSpace=wrap;html=1;" vertex="1" parent="60lB5uvHRvaHwJrx52zC-15">
          <mxGeometry y="26" width="137.87878787878788" height="35.07709251101321" as="geometry" />
        </mxCell>
        <mxCell id="60lB5uvHRvaHwJrx52zC-17" value="+ field: type" style="text;strokeColor=none;fillColor=none;align=left;verticalAlign=top;spacingLeft=4;spacingRight=4;overflow=hidden;rotatable=0;points=[[0,0.5],[1,0.5]];portConstraint=eastwest;whiteSpace=wrap;html=1;" vertex="1" parent="60lB5uvHRvaHwJrx52zC-15">
          <mxGeometry y="61.07709251101321" width="137.87878787878788" height="35.07709251101321" as="geometry" />
        </mxCell>
        <mxCell id="60lB5uvHRvaHwJrx52zC-18" value="+ field: type" style="text;strokeColor=none;fillColor=none;align=left;verticalAlign=top;spacingLeft=4;spacingRight=4;overflow=hidden;rotatable=0;points=[[0,0.5],[1,0.5]];portConstraint=eastwest;whiteSpace=wrap;html=1;" vertex="1" parent="60lB5uvHRvaHwJrx52zC-15">
          <mxGeometry y="96.15418502202643" width="137.87878787878788" height="35.07709251101321" as="geometry" />
        </mxCell>
        <mxCell id="60lB5uvHRvaHwJrx52zC-36" value="" style="endArrow=block;dashed=1;endFill=0;endSize=12;html=1;rounded=0;entryX=0.4;entryY=-0.04;entryDx=0;entryDy=0;entryPerimeter=0;" edge="1" parent="60lB5uvHRvaHwJrx52zC-58" source="60lB5uvHRvaHwJrx52zC-23" target="60lB5uvHRvaHwJrx52zC-15">
          <mxGeometry width="160" relative="1" as="geometry">
            <mxPoint x="-43.333333333333336" y="512.6651982378854" as="sourcePoint" />
            <mxPoint x="114.24242424242425" y="512.6651982378854" as="targetPoint" />
          </mxGeometry>
        </mxCell>
        <mxCell id="60lB5uvHRvaHwJrx52zC-19" value="SIACourse" style="swimlane;fontStyle=0;childLayout=stackLayout;horizontal=1;startSize=26;fillColor=none;horizontalStack=0;resizeParent=1;resizeParentMax=0;resizeLast=0;collapsible=1;marginBottom=0;whiteSpace=wrap;html=1;" vertex="1" parent="60lB5uvHRvaHwJrx52zC-58">
          <mxGeometry x="39.99727272727273" y="99.99607929515417" width="137.87878787878788" height="131.23127753303964" as="geometry" />
        </mxCell>
        <mxCell id="60lB5uvHRvaHwJrx52zC-20" value="+ grups : list(Gruop)" style="text;strokeColor=none;fillColor=none;align=left;verticalAlign=top;spacingLeft=4;spacingRight=4;overflow=hidden;rotatable=0;points=[[0,0.5],[1,0.5]];portConstraint=eastwest;whiteSpace=wrap;html=1;" vertex="1" parent="60lB5uvHRvaHwJrx52zC-19">
          <mxGeometry y="26" width="137.87878787878788" height="35.07709251101321" as="geometry" />
        </mxCell>
        <mxCell id="60lB5uvHRvaHwJrx52zC-21" value="+ field: type" style="text;strokeColor=none;fillColor=none;align=left;verticalAlign=top;spacingLeft=4;spacingRight=4;overflow=hidden;rotatable=0;points=[[0,0.5],[1,0.5]];portConstraint=eastwest;whiteSpace=wrap;html=1;" vertex="1" parent="60lB5uvHRvaHwJrx52zC-19">
          <mxGeometry y="61.07709251101321" width="137.87878787878788" height="35.07709251101321" as="geometry" />
        </mxCell>
        <mxCell id="60lB5uvHRvaHwJrx52zC-22" value="+ field: type" style="text;strokeColor=none;fillColor=none;align=left;verticalAlign=top;spacingLeft=4;spacingRight=4;overflow=hidden;rotatable=0;points=[[0,0.5],[1,0.5]];portConstraint=eastwest;whiteSpace=wrap;html=1;" vertex="1" parent="60lB5uvHRvaHwJrx52zC-19">
          <mxGeometry y="96.15418502202643" width="137.87878787878788" height="35.07709251101321" as="geometry" />
        </mxCell>
        <mxCell id="60lB5uvHRvaHwJrx52zC-37" value="" style="endArrow=block;dashed=1;endFill=0;endSize=12;html=1;rounded=0;entryX=1.024;entryY=0.204;entryDx=0;entryDy=0;entryPerimeter=0;" edge="1" parent="60lB5uvHRvaHwJrx52zC-58" source="60lB5uvHRvaHwJrx52zC-23" target="60lB5uvHRvaHwJrx52zC-21">
          <mxGeometry width="160" relative="1" as="geometry">
            <mxPoint x="-43.333333333333336" y="512.6651982378854" as="sourcePoint" />
            <mxPoint x="114.24242424242425" y="512.6651982378854" as="targetPoint" />
          </mxGeometry>
        </mxCell>
        <mxCell id="60lB5uvHRvaHwJrx52zC-27" value="Group" style="swimlane;fontStyle=0;childLayout=stackLayout;horizontal=1;startSize=26;fillColor=none;horizontalStack=0;resizeParent=1;resizeParentMax=0;resizeLast=0;collapsible=1;marginBottom=0;whiteSpace=wrap;html=1;" vertex="1" parent="60lB5uvHRvaHwJrx52zC-58">
          <mxGeometry x="232.1248484848485" y="60.00330396475773" width="137.87878787878788" height="110.18502202643171" as="geometry" />
        </mxCell>
        <mxCell id="60lB5uvHRvaHwJrx52zC-28" value="+ field: type" style="text;strokeColor=none;fillColor=none;align=left;verticalAlign=top;spacingLeft=4;spacingRight=4;overflow=hidden;rotatable=0;points=[[0,0.5],[1,0.5]];portConstraint=eastwest;whiteSpace=wrap;html=1;" vertex="1" parent="60lB5uvHRvaHwJrx52zC-27">
          <mxGeometry y="26" width="137.87878787878788" height="28.06167400881057" as="geometry" />
        </mxCell>
        <mxCell id="60lB5uvHRvaHwJrx52zC-29" value="+ field: type" style="text;strokeColor=none;fillColor=none;align=left;verticalAlign=top;spacingLeft=4;spacingRight=4;overflow=hidden;rotatable=0;points=[[0,0.5],[1,0.5]];portConstraint=eastwest;whiteSpace=wrap;html=1;" vertex="1" parent="60lB5uvHRvaHwJrx52zC-27">
          <mxGeometry y="54.06167400881057" width="137.87878787878788" height="28.06167400881057" as="geometry" />
        </mxCell>
        <mxCell id="60lB5uvHRvaHwJrx52zC-30" value="+ field: type" style="text;strokeColor=none;fillColor=none;align=left;verticalAlign=top;spacingLeft=4;spacingRight=4;overflow=hidden;rotatable=0;points=[[0,0.5],[1,0.5]];portConstraint=eastwest;whiteSpace=wrap;html=1;" vertex="1" parent="60lB5uvHRvaHwJrx52zC-27">
          <mxGeometry y="82.12334801762114" width="137.87878787878788" height="28.06167400881057" as="geometry" />
        </mxCell>
        <mxCell id="60lB5uvHRvaHwJrx52zC-64" style="edgeStyle=orthogonalEdgeStyle;rounded=0;orthogonalLoop=1;jettySize=auto;html=1;entryX=0.5;entryY=0;entryDx=0;entryDy=0;" edge="1" parent="60lB5uvHRvaHwJrx52zC-58" source="60lB5uvHRvaHwJrx52zC-20" target="60lB5uvHRvaHwJrx52zC-27">
          <mxGeometry relative="1" as="geometry" />
        </mxCell>
        <mxCell id="60lB5uvHRvaHwJrx52zC-60" value="View" style="shape=folder;fontStyle=1;tabWidth=110;tabHeight=30;tabPosition=left;html=1;boundedLbl=1;labelInHeader=1;container=1;collapsible=0;whiteSpace=wrap;" vertex="1" parent="1">
          <mxGeometry y="650" width="380" height="280" as="geometry" />
        </mxCell>
        <mxCell id="60lB5uvHRvaHwJrx52zC-61" value="" style="html=1;strokeColor=none;resizeWidth=1;resizeHeight=1;fillColor=none;part=1;connectable=0;allowArrows=0;deletable=0;whiteSpace=wrap;" vertex="1" parent="60lB5uvHRvaHwJrx52zC-60">
          <mxGeometry width="380" height="196" relative="1" as="geometry">
            <mxPoint y="30" as="offset" />
          </mxGeometry>
        </mxCell>
        <mxCell id="60lB5uvHRvaHwJrx52zC-32" value="View" style="swimlane;fontStyle=0;childLayout=stackLayout;horizontal=1;startSize=26;fillColor=none;horizontalStack=0;resizeParent=1;resizeParentMax=0;resizeLast=0;collapsible=1;marginBottom=0;whiteSpace=wrap;html=1;" vertex="1" parent="60lB5uvHRvaHwJrx52zC-60">
          <mxGeometry x="120" y="50" width="140" height="104" as="geometry" />
        </mxCell>
        <mxCell id="60lB5uvHRvaHwJrx52zC-33" value="+ field: type" style="text;strokeColor=none;fillColor=none;align=left;verticalAlign=top;spacingLeft=4;spacingRight=4;overflow=hidden;rotatable=0;points=[[0,0.5],[1,0.5]];portConstraint=eastwest;whiteSpace=wrap;html=1;" vertex="1" parent="60lB5uvHRvaHwJrx52zC-32">
          <mxGeometry y="26" width="140" height="26" as="geometry" />
        </mxCell>
        <mxCell id="60lB5uvHRvaHwJrx52zC-34" value="+ field: type" style="text;strokeColor=none;fillColor=none;align=left;verticalAlign=top;spacingLeft=4;spacingRight=4;overflow=hidden;rotatable=0;points=[[0,0.5],[1,0.5]];portConstraint=eastwest;whiteSpace=wrap;html=1;" vertex="1" parent="60lB5uvHRvaHwJrx52zC-32">
          <mxGeometry y="52" width="140" height="26" as="geometry" />
        </mxCell>
        <mxCell id="60lB5uvHRvaHwJrx52zC-35" value="+ field: type" style="text;strokeColor=none;fillColor=none;align=left;verticalAlign=top;spacingLeft=4;spacingRight=4;overflow=hidden;rotatable=0;points=[[0,0.5],[1,0.5]];portConstraint=eastwest;whiteSpace=wrap;html=1;" vertex="1" parent="60lB5uvHRvaHwJrx52zC-32">
          <mxGeometry y="78" width="140" height="26" as="geometry" />
        </mxCell>
        <mxCell id="60lB5uvHRvaHwJrx52zC-65" value="Use" style="endArrow=open;endSize=12;dashed=1;html=1;rounded=0;exitX=0.5;exitY=0;exitDx=0;exitDy=0;" edge="1" parent="1" source="60lB5uvHRvaHwJrx52zC-32">
          <mxGeometry width="160" relative="1" as="geometry">
            <mxPoint x="360" y="340" as="sourcePoint" />
            <mxPoint x="200" y="320" as="targetPoint" />
          </mxGeometry>
        </mxCell>
        <mxCell id="60lB5uvHRvaHwJrx52zC-66" style="edgeStyle=orthogonalEdgeStyle;rounded=0;orthogonalLoop=1;jettySize=auto;html=1;entryX=0;entryY=0.5;entryDx=0;entryDy=0;" edge="1" parent="1" source="60lB5uvHRvaHwJrx52zC-4" target="60lB5uvHRvaHwJrx52zC-21">
          <mxGeometry relative="1" as="geometry" />
        </mxCell>
        <mxCell id="60lB5uvHRvaHwJrx52zC-67" style="edgeStyle=orthogonalEdgeStyle;rounded=0;orthogonalLoop=1;jettySize=auto;html=1;entryX=0;entryY=0.5;entryDx=0;entryDy=0;" edge="1" parent="1" source="60lB5uvHRvaHwJrx52zC-4" target="60lB5uvHRvaHwJrx52zC-17">
          <mxGeometry relative="1" as="geometry" />
        </mxCell>
      </root>
    </mxGraphModel>
  </diagram>
</mxfile>
